<mxfile host="65bd71144e">
    <diagram id="tVj9b-WnGPSYWbFo9F1f" name="画面">
        <mxGraphModel dx="947" dy="645" grid="1" gridSize="10" guides="1" tooltips="1" connect="1" arrows="1" fold="1" page="1" pageScale="1" pageWidth="1654" pageHeight="1169" math="0" shadow="0">
            <root>
                <mxCell id="0"/>
                <mxCell id="1" parent="0"/>
                <mxCell id="VP5jikR2NR14hbqxP_gg-1" value="" style="rounded=0;whiteSpace=wrap;html=1;" parent="1" vertex="1">
                    <mxGeometry x="80" y="80" width="610" height="430" as="geometry"/>
                </mxCell>
                <mxCell id="oj9YwCgNzPSe06jS6pb2-1" value="" style="rounded=1;whiteSpace=wrap;html=1;arcSize=6;" parent="1" vertex="1">
                    <mxGeometry x="98" y="230" width="250" height="158" as="geometry"/>
                </mxCell>
                <mxCell id="VP5jikR2NR14hbqxP_gg-2" value="A: ○○○さん" style="text;html=1;strokeColor=none;fillColor=none;align=center;verticalAlign=middle;whiteSpace=wrap;rounded=0;" parent="1" vertex="1">
                    <mxGeometry x="90" y="120" width="80" height="20" as="geometry"/>
                </mxCell>
                <mxCell id="rQ-jI4dKoBpfeypR56CF-1" value="&lt;span style=&quot;background-color: initial;&quot;&gt;☐服を買う&lt;span style=&quot;&quot;&gt;&#9;&lt;span style=&quot;white-space: pre;&quot;&gt;&#9;&lt;/span&gt;&lt;/span&gt;7/21&lt;span style=&quot;white-space: pre;&quot;&gt;&#9;&lt;/span&gt;プライベート&lt;br&gt;&lt;br&gt;&lt;/span&gt;☑靴を買う&lt;span style=&quot;border-color: var(--border-color);&quot;&gt;&#9;&lt;span style=&quot;white-space: pre;&quot;&gt;&#9;&lt;/span&gt;&lt;/span&gt;7/22&lt;span style=&quot;border-color: var(--border-color);&quot;&gt;&amp;nbsp;プライベート&lt;/span&gt;&lt;br&gt;&lt;br&gt;☑食材を買う&lt;span style=&quot;border-color: var(--border-color);&quot;&gt;&#9;&lt;span style=&quot;white-space: pre;&quot;&gt;&#9;&lt;/span&gt;&lt;/span&gt;7/23&lt;span style=&quot;border-color: var(--border-color);&quot;&gt;&amp;nbsp;仕事&lt;/span&gt;&lt;span style=&quot;background-color: initial;&quot;&gt;&lt;br&gt;&lt;/span&gt;" style="text;strokeColor=none;fillColor=none;html=1;whiteSpace=wrap;verticalAlign=top;overflow=hidden;" parent="1" vertex="1">
                    <mxGeometry x="108" y="240" width="230" height="80" as="geometry"/>
                </mxCell>
                <mxCell id="oj9YwCgNzPSe06jS6pb2-2" value="" style="html=1;verticalLabelPosition=bottom;align=center;labelBackgroundColor=#ffffff;verticalAlign=top;strokeWidth=1;strokeColor=#0080F0;shadow=0;dashed=0;shape=mxgraph.ios7.icons.trashcan;fontSize=12;" parent="1" vertex="1">
                    <mxGeometry x="300" y="248" width="8" height="10" as="geometry"/>
                </mxCell>
                <mxCell id="wpwDw2Fwd8eZmC_zeA5R-4" value="" style="html=1;verticalLabelPosition=bottom;align=center;labelBackgroundColor=#ffffff;verticalAlign=top;strokeWidth=1;strokeColor=#0080F0;shadow=0;dashed=0;shape=mxgraph.ios7.icons.trashcan;fontSize=12;" parent="1" vertex="1">
                    <mxGeometry x="300" y="278" width="8" height="10" as="geometry"/>
                </mxCell>
                <mxCell id="wpwDw2Fwd8eZmC_zeA5R-5" value="" style="html=1;verticalLabelPosition=bottom;align=center;labelBackgroundColor=#ffffff;verticalAlign=top;strokeWidth=1;strokeColor=#0080F0;shadow=0;dashed=0;shape=mxgraph.ios7.icons.trashcan;fontSize=12;" parent="1" vertex="1">
                    <mxGeometry x="300" y="307" width="8" height="10" as="geometry"/>
                </mxCell>
                <mxCell id="wpwDw2Fwd8eZmC_zeA5R-6" value="" style="html=1;verticalLabelPosition=bottom;align=center;labelBackgroundColor=#ffffff;verticalAlign=top;strokeWidth=1;strokeColor=#0080F0;shadow=0;dashed=0;shape=mxgraph.ios7.icons.edit;fontSize=12;" parent="1" vertex="1">
                    <mxGeometry x="170" y="122.8" width="14.4" height="14.4" as="geometry"/>
                </mxCell>
                <mxCell id="eu4DZpVsrO1hH6n5FFCI-1" value="" style="html=1;verticalLabelPosition=bottom;align=center;labelBackgroundColor=#ffffff;verticalAlign=top;strokeWidth=1;strokeColor=#0080F0;shadow=0;dashed=0;shape=mxgraph.ios7.icons.pointer;fontSize=12;" parent="1" vertex="1">
                    <mxGeometry x="320" y="248" width="10" height="10" as="geometry"/>
                </mxCell>
                <mxCell id="eu4DZpVsrO1hH6n5FFCI-2" value="" style="html=1;verticalLabelPosition=bottom;align=center;labelBackgroundColor=#ffffff;verticalAlign=top;strokeWidth=1;strokeColor=#0080F0;shadow=0;dashed=0;shape=mxgraph.ios7.icons.pointer;fontSize=12;" parent="1" vertex="1">
                    <mxGeometry x="320" y="278" width="10" height="10" as="geometry"/>
                </mxCell>
                <mxCell id="eu4DZpVsrO1hH6n5FFCI-3" value="" style="html=1;verticalLabelPosition=bottom;align=center;labelBackgroundColor=#ffffff;verticalAlign=top;strokeWidth=1;strokeColor=#0080F0;shadow=0;dashed=0;shape=mxgraph.ios7.icons.pointer;fontSize=12;" parent="1" vertex="1">
                    <mxGeometry x="320" y="307" width="10" height="10" as="geometry"/>
                </mxCell>
                <mxCell id="eu4DZpVsrO1hH6n5FFCI-5" value="B: ○○○さん" style="text;html=1;strokeColor=none;fillColor=none;align=center;verticalAlign=middle;whiteSpace=wrap;rounded=0;" parent="1" vertex="1">
                    <mxGeometry x="412" y="120" width="80" height="20" as="geometry"/>
                </mxCell>
                <mxCell id="eu4DZpVsrO1hH6n5FFCI-10" value="" style="html=1;verticalLabelPosition=bottom;align=center;labelBackgroundColor=#ffffff;verticalAlign=top;strokeWidth=1;strokeColor=#0080F0;shadow=0;dashed=0;shape=mxgraph.ios7.icons.edit;fontSize=12;" parent="1" vertex="1">
                    <mxGeometry x="492" y="122.8" width="14.4" height="14.4" as="geometry"/>
                </mxCell>
                <mxCell id="2vACSee2T-R-0iwl-GF7-1" value="Todo" style="text;html=1;strokeColor=none;fillColor=none;align=left;verticalAlign=middle;whiteSpace=wrap;rounded=0;" parent="1" vertex="1">
                    <mxGeometry x="98" y="160" width="32" height="30" as="geometry"/>
                </mxCell>
                <mxCell id="2vACSee2T-R-0iwl-GF7-2" value="" style="rounded=1;whiteSpace=wrap;html=1;" parent="1" vertex="1">
                    <mxGeometry x="147" y="164" width="53" height="22" as="geometry"/>
                </mxCell>
                <mxCell id="2vACSee2T-R-0iwl-GF7-3" value="期限" style="text;html=1;strokeColor=none;fillColor=none;align=left;verticalAlign=middle;whiteSpace=wrap;rounded=0;" parent="1" vertex="1">
                    <mxGeometry x="213.5" y="160" width="32" height="30" as="geometry"/>
                </mxCell>
                <mxCell id="2vACSee2T-R-0iwl-GF7-4" value="" style="rounded=1;whiteSpace=wrap;html=1;" parent="1" vertex="1">
                    <mxGeometry x="249" y="164" width="53" height="22" as="geometry"/>
                </mxCell>
                <mxCell id="2vACSee2T-R-0iwl-GF7-5" value="タイプ" style="text;html=1;strokeColor=none;fillColor=none;align=left;verticalAlign=middle;whiteSpace=wrap;rounded=0;" parent="1" vertex="1">
                    <mxGeometry x="96" y="195" width="50" height="30" as="geometry"/>
                </mxCell>
                <mxCell id="2vACSee2T-R-0iwl-GF7-7" value="プライベート" style="strokeWidth=1;shadow=0;dashed=0;align=center;html=1;shape=mxgraph.mockup.forms.comboBox;strokeColor=#999999;fillColor=#ddeeff;align=left;fillColor2=#aaddff;mainText=;fontColor=#666666;fontSize=13;spacingLeft=3;" parent="1" vertex="1">
                    <mxGeometry x="147" y="198" width="116" height="24" as="geometry"/>
                </mxCell>
                <mxCell id="2vACSee2T-R-0iwl-GF7-8" value="追加" style="strokeWidth=1;shadow=0;dashed=0;align=center;html=1;shape=mxgraph.mockup.buttons.button;strokeColor=#666666;fontColor=#ffffff;mainText=;buttonStyle=round;fontSize=11;fontStyle=1;fillColor=#008cff;whiteSpace=wrap;" parent="1" vertex="1">
                    <mxGeometry x="277.8" y="200" width="56" height="20" as="geometry"/>
                </mxCell>
                <mxCell id="2vACSee2T-R-0iwl-GF7-9" value="" style="rounded=1;whiteSpace=wrap;html=1;arcSize=6;" parent="1" vertex="1">
                    <mxGeometry x="422" y="230" width="250" height="158" as="geometry"/>
                </mxCell>
                <mxCell id="2vACSee2T-R-0iwl-GF7-10" value="&lt;span style=&quot;background-color: initial;&quot;&gt;☐服を買う&lt;span style=&quot;&quot;&gt;&#9;&lt;span style=&quot;white-space: pre;&quot;&gt;&#9;&lt;/span&gt;&lt;/span&gt;7/21&lt;span style=&quot;white-space: pre;&quot;&gt;&#9;&lt;/span&gt;プライベート&lt;br&gt;&lt;br&gt;&lt;/span&gt;☑靴を買う&lt;span style=&quot;border-color: var(--border-color);&quot;&gt;&#9;&lt;span style=&quot;white-space: pre;&quot;&gt;&#9;&lt;/span&gt;&lt;/span&gt;7/22&lt;span style=&quot;border-color: var(--border-color);&quot;&gt;&amp;nbsp;プライベート&lt;/span&gt;&lt;br&gt;&lt;br&gt;☑食材を買う&lt;span style=&quot;border-color: var(--border-color);&quot;&gt;&#9;&lt;span style=&quot;white-space: pre;&quot;&gt;&#9;&lt;/span&gt;&lt;/span&gt;7/23&lt;span style=&quot;border-color: var(--border-color);&quot;&gt;&amp;nbsp;仕事&lt;/span&gt;&lt;span style=&quot;background-color: initial;&quot;&gt;&lt;br&gt;&lt;/span&gt;" style="text;strokeColor=none;fillColor=none;html=1;whiteSpace=wrap;verticalAlign=top;overflow=hidden;" parent="1" vertex="1">
                    <mxGeometry x="432" y="240" width="230" height="80" as="geometry"/>
                </mxCell>
                <mxCell id="2vACSee2T-R-0iwl-GF7-11" value="" style="html=1;verticalLabelPosition=bottom;align=center;labelBackgroundColor=#ffffff;verticalAlign=top;strokeWidth=1;strokeColor=#0080F0;shadow=0;dashed=0;shape=mxgraph.ios7.icons.trashcan;fontSize=12;" parent="1" vertex="1">
                    <mxGeometry x="624" y="248" width="8" height="10" as="geometry"/>
                </mxCell>
                <mxCell id="2vACSee2T-R-0iwl-GF7-12" value="" style="html=1;verticalLabelPosition=bottom;align=center;labelBackgroundColor=#ffffff;verticalAlign=top;strokeWidth=1;strokeColor=#0080F0;shadow=0;dashed=0;shape=mxgraph.ios7.icons.trashcan;fontSize=12;" parent="1" vertex="1">
                    <mxGeometry x="624" y="278" width="8" height="10" as="geometry"/>
                </mxCell>
                <mxCell id="2vACSee2T-R-0iwl-GF7-13" value="" style="html=1;verticalLabelPosition=bottom;align=center;labelBackgroundColor=#ffffff;verticalAlign=top;strokeWidth=1;strokeColor=#0080F0;shadow=0;dashed=0;shape=mxgraph.ios7.icons.trashcan;fontSize=12;" parent="1" vertex="1">
                    <mxGeometry x="624" y="307" width="8" height="10" as="geometry"/>
                </mxCell>
                <mxCell id="2vACSee2T-R-0iwl-GF7-15" value="" style="html=1;verticalLabelPosition=bottom;align=center;labelBackgroundColor=#ffffff;verticalAlign=top;strokeWidth=1;strokeColor=#0080F0;shadow=0;dashed=0;shape=mxgraph.ios7.icons.pointer;fontSize=12;" parent="1" vertex="1">
                    <mxGeometry x="644" y="248" width="10" height="10" as="geometry"/>
                </mxCell>
                <mxCell id="2vACSee2T-R-0iwl-GF7-16" value="" style="html=1;verticalLabelPosition=bottom;align=center;labelBackgroundColor=#ffffff;verticalAlign=top;strokeWidth=1;strokeColor=#0080F0;shadow=0;dashed=0;shape=mxgraph.ios7.icons.pointer;fontSize=12;" parent="1" vertex="1">
                    <mxGeometry x="644" y="278" width="10" height="10" as="geometry"/>
                </mxCell>
                <mxCell id="2vACSee2T-R-0iwl-GF7-17" value="" style="html=1;verticalLabelPosition=bottom;align=center;labelBackgroundColor=#ffffff;verticalAlign=top;strokeWidth=1;strokeColor=#0080F0;shadow=0;dashed=0;shape=mxgraph.ios7.icons.pointer;fontSize=12;" parent="1" vertex="1">
                    <mxGeometry x="644" y="307" width="10" height="10" as="geometry"/>
                </mxCell>
                <mxCell id="2vACSee2T-R-0iwl-GF7-18" value="Todo" style="text;html=1;strokeColor=none;fillColor=none;align=left;verticalAlign=middle;whiteSpace=wrap;rounded=0;" parent="1" vertex="1">
                    <mxGeometry x="422" y="160" width="32" height="30" as="geometry"/>
                </mxCell>
                <mxCell id="2vACSee2T-R-0iwl-GF7-19" value="" style="rounded=1;whiteSpace=wrap;html=1;" parent="1" vertex="1">
                    <mxGeometry x="471" y="164" width="53" height="22" as="geometry"/>
                </mxCell>
                <mxCell id="2vACSee2T-R-0iwl-GF7-20" value="期限" style="text;html=1;strokeColor=none;fillColor=none;align=left;verticalAlign=middle;whiteSpace=wrap;rounded=0;" parent="1" vertex="1">
                    <mxGeometry x="537.5" y="160" width="32" height="30" as="geometry"/>
                </mxCell>
                <mxCell id="2vACSee2T-R-0iwl-GF7-21" value="" style="rounded=1;whiteSpace=wrap;html=1;" parent="1" vertex="1">
                    <mxGeometry x="573" y="164" width="53" height="22" as="geometry"/>
                </mxCell>
                <mxCell id="2vACSee2T-R-0iwl-GF7-22" value="タイプ" style="text;html=1;strokeColor=none;fillColor=none;align=left;verticalAlign=middle;whiteSpace=wrap;rounded=0;" parent="1" vertex="1">
                    <mxGeometry x="420" y="195" width="50" height="30" as="geometry"/>
                </mxCell>
                <mxCell id="2vACSee2T-R-0iwl-GF7-23" value="プライベート" style="strokeWidth=1;shadow=0;dashed=0;align=center;html=1;shape=mxgraph.mockup.forms.comboBox;strokeColor=#999999;fillColor=#ddeeff;align=left;fillColor2=#aaddff;mainText=;fontColor=#666666;fontSize=13;spacingLeft=3;" parent="1" vertex="1">
                    <mxGeometry x="471" y="198" width="116" height="24" as="geometry"/>
                </mxCell>
                <mxCell id="2vACSee2T-R-0iwl-GF7-24" value="追加" style="strokeWidth=1;shadow=0;dashed=0;align=center;html=1;shape=mxgraph.mockup.buttons.button;strokeColor=#666666;fontColor=#ffffff;mainText=;buttonStyle=round;fontSize=11;fontStyle=1;fillColor=#008cff;whiteSpace=wrap;" parent="1" vertex="1">
                    <mxGeometry x="601.8" y="200" width="56" height="20" as="geometry"/>
                </mxCell>
                <mxCell id="Bcu3dMiEP5s6XjblXEIv-1" value="もう片方のメンバーにTodoを渡す。" style="rounded=0;whiteSpace=wrap;html=1;align=left;verticalAlign=top;" parent="1" vertex="1">
                    <mxGeometry x="720" y="203" width="170" height="45" as="geometry"/>
                </mxCell>
                <mxCell id="Bcu3dMiEP5s6XjblXEIv-2" style="edgeStyle=none;html=1;exitX=0;exitY=0.5;exitDx=0;exitDy=0;dashed=1;fontSize=12;endArrow=none;endFill=0;entryX=0.583;entryY=0.747;entryDx=0;entryDy=0;entryPerimeter=0;" parent="1" source="Bcu3dMiEP5s6XjblXEIv-1" target="2vACSee2T-R-0iwl-GF7-15" edge="1">
                    <mxGeometry relative="1" as="geometry">
                        <mxPoint x="619.5" y="174.33000000000004" as="targetPoint"/>
                        <Array as="points">
                            <mxPoint x="690" y="240"/>
                        </Array>
                    </mxGeometry>
                </mxCell>
                <mxCell id="YCH95fIz1_9WrDPlLzbM-16" style="edgeStyle=orthogonalEdgeStyle;curved=1;html=1;exitX=1;exitY=0.5;exitDx=0;exitDy=0;entryX=0;entryY=0.5;entryDx=0;entryDy=0;entryPerimeter=0;endArrow=classic;endFill=1;" parent="1" source="fxFA9M8uCJolFA8AC4wl-1" target="YCH95fIz1_9WrDPlLzbM-19" edge="1">
                    <mxGeometry relative="1" as="geometry">
                        <mxPoint x="831.76" y="627.6599999999999" as="targetPoint"/>
                    </mxGeometry>
                </mxCell>
                <mxCell id="YCH95fIz1_9WrDPlLzbM-26" style="edgeStyle=orthogonalEdgeStyle;curved=1;html=1;exitX=1;exitY=0.5;exitDx=0;exitDy=0;entryX=0;entryY=0.5;entryDx=0;entryDy=0;entryPerimeter=0;endArrow=classic;endFill=1;" parent="1" source="fxFA9M8uCJolFA8AC4wl-1" target="YCH95fIz1_9WrDPlLzbM-20" edge="1">
                    <mxGeometry relative="1" as="geometry"/>
                </mxCell>
                <mxCell id="YCH95fIz1_9WrDPlLzbM-31" style="edgeStyle=orthogonalEdgeStyle;curved=1;html=1;exitX=1;exitY=0.5;exitDx=0;exitDy=0;entryX=0;entryY=0.5;entryDx=0;entryDy=0;entryPerimeter=0;endArrow=classic;endFill=1;" parent="1" source="fxFA9M8uCJolFA8AC4wl-1" target="YCH95fIz1_9WrDPlLzbM-21" edge="1">
                    <mxGeometry relative="1" as="geometry"/>
                </mxCell>
                <mxCell id="YCH95fIz1_9WrDPlLzbM-38" style="edgeStyle=orthogonalEdgeStyle;curved=1;html=1;exitX=1;exitY=0.5;exitDx=0;exitDy=0;entryX=0;entryY=0.5;entryDx=0;entryDy=0;entryPerimeter=0;endArrow=classic;endFill=1;" parent="1" source="fxFA9M8uCJolFA8AC4wl-1" target="YCH95fIz1_9WrDPlLzbM-22" edge="1">
                    <mxGeometry relative="1" as="geometry"/>
                </mxCell>
                <mxCell id="fxFA9M8uCJolFA8AC4wl-1" value="Todo画面&lt;br&gt;&lt;br&gt;表示&lt;br&gt;・ポジション&lt;br&gt;・メンバー名&lt;br&gt;&lt;br&gt;入力&lt;br&gt;・Todo内容&lt;br&gt;・期限&lt;br&gt;・Todoタイプ&lt;br&gt;&lt;br&gt;操作&lt;br&gt;・Todo追加ボタン&lt;br&gt;・Todoステータス変更チェックボックス&lt;br&gt;・Todo削除ボタン&lt;br&gt;・Todo依頼ボタン" style="rounded=0;whiteSpace=wrap;html=1;align=left;verticalAlign=top;" parent="1" vertex="1">
                    <mxGeometry x="470" y="600" width="240" height="260" as="geometry"/>
                </mxCell>
                <mxCell id="YCH95fIz1_9WrDPlLzbM-2" style="edgeStyle=orthogonalEdgeStyle;html=1;exitX=0.966;exitY=0.512;exitDx=0;exitDy=0;exitPerimeter=0;entryX=0;entryY=0.5;entryDx=0;entryDy=0;endArrow=classic;endFill=1;curved=1;" parent="1" source="YCH95fIz1_9WrDPlLzbM-18" target="kp452B9yatlc5jmlzGpU-3" edge="1">
                    <mxGeometry relative="1" as="geometry">
                        <mxPoint x="208.26999999999998" y="729.3399999999999" as="sourcePoint"/>
                    </mxGeometry>
                </mxCell>
                <mxCell id="YCH95fIz1_9WrDPlLzbM-3" style="edgeStyle=orthogonalEdgeStyle;curved=1;html=1;exitX=1;exitY=0.5;exitDx=0;exitDy=0;entryX=0;entryY=0.5;entryDx=0;entryDy=0;endArrow=classic;endFill=1;" parent="1" source="kp452B9yatlc5jmlzGpU-3" target="fxFA9M8uCJolFA8AC4wl-1" edge="1">
                    <mxGeometry relative="1" as="geometry"/>
                </mxCell>
                <mxCell id="kp452B9yatlc5jmlzGpU-3" value="初期処理を行う。" style="ellipse;whiteSpace=wrap;html=1;" parent="1" vertex="1">
                    <mxGeometry x="290" y="700" width="130" height="60" as="geometry"/>
                </mxCell>
                <mxCell id="YCH95fIz1_9WrDPlLzbM-1" style="edgeStyle=orthogonalEdgeStyle;html=1;exitX=0.5;exitY=0;exitDx=0;exitDy=0;exitPerimeter=0;entryX=0.5;entryY=1;entryDx=0;entryDy=0;endArrow=classic;endFill=1;curved=1;" parent="1" source="kp452B9yatlc5jmlzGpU-4" target="kp452B9yatlc5jmlzGpU-3" edge="1">
                    <mxGeometry relative="1" as="geometry"/>
                </mxCell>
                <mxCell id="kp452B9yatlc5jmlzGpU-4" value="メンバー&lt;br&gt;Todo&lt;br&gt;Todoタイプ" style="shape=cylinder3;whiteSpace=wrap;html=1;boundedLbl=1;backgroundOutline=1;size=15;" parent="1" vertex="1">
                    <mxGeometry x="317" y="820" width="76" height="80" as="geometry"/>
                </mxCell>
                <mxCell id="YCH95fIz1_9WrDPlLzbM-34" style="edgeStyle=orthogonalEdgeStyle;curved=1;html=1;exitX=0.5;exitY=1;exitDx=0;exitDy=0;entryX=0.5;entryY=0;entryDx=0;entryDy=0;entryPerimeter=0;endArrow=classic;endFill=1;" parent="1" source="YCH95fIz1_9WrDPlLzbM-8" target="YCH95fIz1_9WrDPlLzbM-12" edge="1">
                    <mxGeometry relative="1" as="geometry"/>
                </mxCell>
                <mxCell id="YCH95fIz1_9WrDPlLzbM-8" value="Todoを追加する。" style="ellipse;whiteSpace=wrap;html=1;" parent="1" vertex="1">
                    <mxGeometry x="1040" y="562.5" width="130" height="60" as="geometry"/>
                </mxCell>
                <mxCell id="YCH95fIz1_9WrDPlLzbM-35" style="edgeStyle=orthogonalEdgeStyle;curved=1;html=1;exitX=0.5;exitY=1;exitDx=0;exitDy=0;entryX=0.5;entryY=0;entryDx=0;entryDy=0;entryPerimeter=0;endArrow=classic;endFill=1;" parent="1" source="YCH95fIz1_9WrDPlLzbM-9" target="YCH95fIz1_9WrDPlLzbM-13" edge="1">
                    <mxGeometry relative="1" as="geometry"/>
                </mxCell>
                <mxCell id="YCH95fIz1_9WrDPlLzbM-9" value="Todoのステータスを変更する。" style="ellipse;whiteSpace=wrap;html=1;" parent="1" vertex="1">
                    <mxGeometry x="1040" y="770" width="130" height="60" as="geometry"/>
                </mxCell>
                <mxCell id="YCH95fIz1_9WrDPlLzbM-36" style="edgeStyle=orthogonalEdgeStyle;curved=1;html=1;exitX=0.5;exitY=1;exitDx=0;exitDy=0;endArrow=classic;endFill=1;" parent="1" source="YCH95fIz1_9WrDPlLzbM-10" target="YCH95fIz1_9WrDPlLzbM-14" edge="1">
                    <mxGeometry relative="1" as="geometry"/>
                </mxCell>
                <mxCell id="YCH95fIz1_9WrDPlLzbM-10" value="Todoを削除する。" style="ellipse;whiteSpace=wrap;html=1;" parent="1" vertex="1">
                    <mxGeometry x="1040" y="950" width="130" height="60" as="geometry"/>
                </mxCell>
                <mxCell id="YCH95fIz1_9WrDPlLzbM-37" style="edgeStyle=orthogonalEdgeStyle;curved=1;html=1;exitX=0.5;exitY=1;exitDx=0;exitDy=0;entryX=0.5;entryY=0;entryDx=0;entryDy=0;entryPerimeter=0;endArrow=classic;endFill=1;" parent="1" source="YCH95fIz1_9WrDPlLzbM-11" target="YCH95fIz1_9WrDPlLzbM-15" edge="1">
                    <mxGeometry relative="1" as="geometry"/>
                </mxCell>
                <mxCell id="YCH95fIz1_9WrDPlLzbM-11" value="Todoを別のメンバーに渡す。" style="ellipse;whiteSpace=wrap;html=1;" parent="1" vertex="1">
                    <mxGeometry x="1040" y="1140" width="130" height="60" as="geometry"/>
                </mxCell>
                <mxCell id="YCH95fIz1_9WrDPlLzbM-12" value="Todo" style="shape=cylinder3;whiteSpace=wrap;html=1;boundedLbl=1;backgroundOutline=1;size=15;" parent="1" vertex="1">
                    <mxGeometry x="1067" y="660" width="76" height="80" as="geometry"/>
                </mxCell>
                <mxCell id="YCH95fIz1_9WrDPlLzbM-13" value="Todo" style="shape=cylinder3;whiteSpace=wrap;html=1;boundedLbl=1;backgroundOutline=1;size=15;" parent="1" vertex="1">
                    <mxGeometry x="1067" y="850" width="76" height="80" as="geometry"/>
                </mxCell>
                <mxCell id="YCH95fIz1_9WrDPlLzbM-14" value="Todo" style="shape=cylinder3;whiteSpace=wrap;html=1;boundedLbl=1;backgroundOutline=1;size=15;" parent="1" vertex="1">
                    <mxGeometry x="1067" y="1030" width="76" height="80" as="geometry"/>
                </mxCell>
                <mxCell id="YCH95fIz1_9WrDPlLzbM-15" value="Todo" style="shape=cylinder3;whiteSpace=wrap;html=1;boundedLbl=1;backgroundOutline=1;size=15;" parent="1" vertex="1">
                    <mxGeometry x="1067" y="1230" width="76" height="80" as="geometry"/>
                </mxCell>
                <mxCell id="YCH95fIz1_9WrDPlLzbM-18" value="アプリ起動" style="verticalLabelPosition=middle;verticalAlign=middle;html=1;shape=mxgraph.basic.6_point_star;fillColor=#ffff88;strokeColor=#36393d;labelPosition=center;align=center;" parent="1" vertex="1">
                    <mxGeometry x="70" y="700" width="160" height="60" as="geometry"/>
                </mxCell>
                <mxCell id="YCH95fIz1_9WrDPlLzbM-24" style="edgeStyle=orthogonalEdgeStyle;curved=1;html=1;exitX=1;exitY=0.5;exitDx=0;exitDy=0;exitPerimeter=0;entryX=0;entryY=0.5;entryDx=0;entryDy=0;endArrow=classic;endFill=1;" parent="1" source="YCH95fIz1_9WrDPlLzbM-19" target="YCH95fIz1_9WrDPlLzbM-8" edge="1">
                    <mxGeometry relative="1" as="geometry"/>
                </mxCell>
                <mxCell id="YCH95fIz1_9WrDPlLzbM-19" value="Todo追加ボタン&lt;br style=&quot;border-color: var(--border-color);&quot;&gt;をクリック" style="verticalLabelPosition=middle;verticalAlign=middle;html=1;shape=mxgraph.basic.6_point_star;fillColor=#ffff88;strokeColor=#36393d;labelPosition=center;align=center;" parent="1" vertex="1">
                    <mxGeometry x="840" y="560" width="160" height="65" as="geometry"/>
                </mxCell>
                <mxCell id="YCH95fIz1_9WrDPlLzbM-27" style="edgeStyle=orthogonalEdgeStyle;curved=1;html=1;exitX=1;exitY=0.5;exitDx=0;exitDy=0;exitPerimeter=0;entryX=0;entryY=0.5;entryDx=0;entryDy=0;endArrow=classic;endFill=1;" parent="1" source="YCH95fIz1_9WrDPlLzbM-20" target="YCH95fIz1_9WrDPlLzbM-9" edge="1">
                    <mxGeometry relative="1" as="geometry"/>
                </mxCell>
                <mxCell id="YCH95fIz1_9WrDPlLzbM-20" value="&lt;span style=&quot;border-color: var(--border-color); text-align: left;&quot;&gt;Todoステータス変更チェックボックス&lt;/span&gt;&lt;br style=&quot;border-color: var(--border-color);&quot;&gt;をクリック" style="verticalLabelPosition=middle;verticalAlign=middle;html=1;shape=mxgraph.basic.6_point_star;fillColor=#ffff88;strokeColor=#36393d;labelPosition=center;align=center;" parent="1" vertex="1">
                    <mxGeometry x="840" y="770" width="160" height="60" as="geometry"/>
                </mxCell>
                <mxCell id="YCH95fIz1_9WrDPlLzbM-32" style="edgeStyle=orthogonalEdgeStyle;curved=1;html=1;exitX=1;exitY=0.5;exitDx=0;exitDy=0;exitPerimeter=0;entryX=0;entryY=0.5;entryDx=0;entryDy=0;endArrow=classic;endFill=1;" parent="1" source="YCH95fIz1_9WrDPlLzbM-21" target="YCH95fIz1_9WrDPlLzbM-10" edge="1">
                    <mxGeometry relative="1" as="geometry"/>
                </mxCell>
                <mxCell id="YCH95fIz1_9WrDPlLzbM-21" value="&lt;span style=&quot;border-color: var(--border-color); text-align: left;&quot;&gt;Todo削除ボタン&lt;/span&gt;&lt;br style=&quot;border-color: var(--border-color);&quot;&gt;をクリック" style="verticalLabelPosition=middle;verticalAlign=middle;html=1;shape=mxgraph.basic.6_point_star;fillColor=#ffff88;strokeColor=#36393d;labelPosition=center;align=center;" parent="1" vertex="1">
                    <mxGeometry x="827" y="950" width="160" height="60" as="geometry"/>
                </mxCell>
                <mxCell id="YCH95fIz1_9WrDPlLzbM-39" style="edgeStyle=orthogonalEdgeStyle;curved=1;html=1;exitX=1;exitY=0.5;exitDx=0;exitDy=0;exitPerimeter=0;entryX=0;entryY=0.5;entryDx=0;entryDy=0;endArrow=classic;endFill=1;" parent="1" source="YCH95fIz1_9WrDPlLzbM-22" target="YCH95fIz1_9WrDPlLzbM-11" edge="1">
                    <mxGeometry relative="1" as="geometry"/>
                </mxCell>
                <mxCell id="YCH95fIz1_9WrDPlLzbM-22" value="&lt;span style=&quot;border-color: var(--border-color); text-align: left;&quot;&gt;Todo依頼ボタン&lt;/span&gt;&lt;br style=&quot;border-color: var(--border-color);&quot;&gt;をクリック" style="verticalLabelPosition=middle;verticalAlign=middle;html=1;shape=mxgraph.basic.6_point_star;fillColor=#ffff88;strokeColor=#36393d;labelPosition=center;align=center;" parent="1" vertex="1">
                    <mxGeometry x="820" y="1140" width="160" height="60" as="geometry"/>
                </mxCell>
            </root>
        </mxGraphModel>
    </diagram>
</mxfile>